HIERARCHY
ROOT Hips
{
	OFFSET 0.00000 0.00000 0.00000
	CHANNELS 6 Xposition Yposition Zposition Zrotation Yrotation Xrotation 
	JOINT LHipJoint
	{
		OFFSET 0 0 0
		CHANNELS 3 Zrotation Yrotation Xrotation
		JOINT LeftUpLeg
		{
			OFFSET 1.29432 -1.88279 0.59910
			CHANNELS 3 Zrotation Yrotation Xrotation
			JOINT LeftLeg
			{
				OFFSET 2.63039 -7.22694 0.00000
				CHANNELS 3 Zrotation Yrotation Xrotation
				JOINT LeftFoot
				{
					OFFSET 2.70674 -7.43672 0.00000
					CHANNELS 3 Zrotation Yrotation Xrotation
					JOINT LeftToeBase
					{
						OFFSET 0.15066 -0.41394 2.09027
						CHANNELS 3 Zrotation Yrotation Xrotation
						End Site
						{
							OFFSET 0.00000 -0.00000 1.07518
						}
					}
				}
			}
		}
	}
	JOINT RHipJoint
	{
		OFFSET 0 0 0
		CHANNELS 3 Zrotation Yrotation Xrotation
		JOINT RightUpLeg
		{
			OFFSET -1.37068 -1.88279 0.59910
			CHANNELS 3 Zrotation Yrotation Xrotation
			JOINT RightLeg
			{
				OFFSET -2.57023 -7.06166 0.00000
				CHANNELS 3 Zrotation Yrotation Xrotation
				JOINT RightFoot
				{
					OFFSET -2.76461 -7.59570 0.00000
					CHANNELS 3 Zrotation Yrotation Xrotation
					JOINT RightToeBase
					{
						OFFSET -0.24175 -0.64785 2.19719
						CHANNELS 3 Zrotation Yrotation Xrotation
						End Site
						{
							OFFSET -0.00000 -0.00000 1.14803
						}
					}
				}
			}
		}
	}
	JOINT LowerBack
	{
		OFFSET 0 0 0
		CHANNELS 3 Zrotation Yrotation Xrotation
		JOINT Spine
		{
			OFFSET -0.03138 2.03983 -0.23106
			CHANNELS 3 Zrotation Yrotation Xrotation
			JOINT Spine1
			{
				OFFSET -0.00325 2.06238 -0.06878
				CHANNELS 3 Zrotation Yrotation Xrotation
				JOINT Neck
				{
					OFFSET 0 0 0
					CHANNELS 3 Zrotation Yrotation Xrotation
					JOINT Neck1
					{
						OFFSET -0.00002 1.75318 0.18090
						CHANNELS 3 Zrotation Yrotation Xrotation
						JOINT Head
						{
							OFFSET 0.08806 1.75856 -0.25387
							CHANNELS 3 Zrotation Yrotation Xrotation
							End Site
							{
								OFFSET 0.02554 1.78597 -0.10684
							}
						}
					}
				}
				JOINT LeftShoulder
				{
					OFFSET 0 0 0
					CHANNELS 3 Zrotation Yrotation Xrotation
					JOINT LeftArm
					{
						OFFSET 3.09657 1.33597 -0.04414
						CHANNELS 3 Zrotation Yrotation Xrotation
						JOINT LeftForeArm
						{
							OFFSET 5.34298 -0.00000 -0.00000
							CHANNELS 3 Zrotation Yrotation Xrotation
							JOINT LeftHand
							{
								OFFSET 3.67262 -0.00000 -0.00000
								CHANNELS 3 Zrotation Yrotation Xrotation
								JOINT LeftFingerBase
								{
									OFFSET 0 0 0
									CHANNELS 3 Zrotation Yrotation Xrotation
									JOINT LeftHandIndex1
									{
										OFFSET 0.59930 -0.00000 -0.00000
										CHANNELS 3 Zrotation Yrotation Xrotation
										End Site
										{
											OFFSET 0.48317 -0.00000 -0.00000
										}
									}
								}
								JOINT LThumb
								{
									OFFSET 0 0 0
									CHANNELS 3 Zrotation Yrotation Xrotation
									End Site
									{
										OFFSET 0.49055 -0.00000 0.49055
									}
								}
							}
						}
					}
				}
				JOINT RightShoulder
				{
					OFFSET 0 0 0
					CHANNELS 3 Zrotation Yrotation Xrotation
					JOINT RightArm
					{
						OFFSET -3.16460 1.32273 -0.23382
						CHANNELS 3 Zrotation Yrotation Xrotation
						JOINT RightForeArm
						{
							OFFSET -5.54967 -0.01834 0.03348
							CHANNELS 3 Zrotation Yrotation Xrotation
							JOINT RightHand
							{
								OFFSET -3.69401 -0.00000 0.00000
								CHANNELS 3 Zrotation Yrotation Xrotation
								JOINT RightFingerBase
								{
									OFFSET 0 0 0
									CHANNELS 3 Zrotation Yrotation Xrotation
									JOINT RightHandIndex1
									{
										OFFSET -0.63811 -0.00000 0.00000
										CHANNELS 3 Zrotation Yrotation Xrotation
										End Site
										{
											OFFSET -0.51446 -0.00000 0.00000
										}
									}
								}
								JOINT RThumb
								{
									OFFSET 0 0 0
									CHANNELS 3 Zrotation Yrotation Xrotation
									End Site
									{
										OFFSET -0.52232 -0.00000 0.52232
									}
								}
							}
						}
					}
				}
			}
		}
	}
}
MOTION
Frames: 11
Frame Time: 0.117647
0.00 0.00 0.00 0 0 0 0 0 0 -21 0 0 0 0 0 0 0 0 0 0 0 0 0 0 21 0 0 0 0 0 0 0 0 0 0 0 0 0 0 0 0 0 0 0 0 0 0 -16 0 0 21 0 0 11 0 0 0 -8 0 0 0 0 0 0 0 0 0 0 0 0 0 0 0 0 0 0 0 0 8 0 0 0 0 0 0 0 0 0 0 0 0 0 0 0 0 0
0.00 0.00 0.00 177.9870 -3.8095 -176.6650 0.0000 0.0000 0.0000 -19.9315 1.1272 -9.4032 10.3511 17.6026 60.6554 0.2419 5.7930 9.0514 0.2589 -3.2735 -9.0410 0.0000 0.0000 0.0000 22.2312 10.6610 -13.7527 -2.8465 -10.4423 30.4214 -0.5163 -4.3783 -15.8825 -0.3159 -3.6130 9.9905 -1.9153 -0.6677 1.1916 0.6338 -0.9290 1.2886 1.7275 -0.4932 0.6927 8.6100 4.5409 -5.8135 0.6469 5.2073 2.5308 -1.0784 2.6365 2.0325 0.0000 0.0000 0.0000 -91.6868 -5.5458 -10.5185 13.5315 -22.0609 -2.6496 -0.0000 0.0000 -30.2871 -13.4789 27.1913 -6.2506 -7.1250 0.0000 -0.0000 -43.4937 51.8214 -8.6752 0.0000 0.0000 0.0000 92.2805 -10.8787 -14.5080 -9.6138 16.1332 -1.3657 0.0000 0.0000 36.9253 -21.2963 21.7262 -8.2109 7.1250 -0.0000 -0.0000 4.7042 -6.8893 4.1203
0.00 0.00 0.00 179.9720 3.7198 -173.7090 0.0000 0.0000 0.0000 -15.4261 -8.2060 -32.1601 7.5649 15.7897 50.9798 0.0640 2.8500 -6.6877 0.0048 -0.4483 -1.2318 0.0000 0.0000 0.0000 24.6752 7.0562 -5.8221 -2.4125 -9.6770 27.9371 -0.4460 0.5510 -12.4351 -0.0176 0.8568 -2.3550 -0.2508 4.4048 2.5091 -0.3055 5.9224 1.7833 -0.2952 2.9836 0.4350 5.4520 5.7159 -5.9689 -0.6833 6.9639 -5.2321 -0.9939 3.2296 -0.4133 -0.0000 0.0000 0.0000 -79.6786 27.7145 -25.3102 16.1829 -25.7680 -3.7251 -0.0000 0.0000 -12.4422 -12.1585 25.0305 -5.2085 -7.1250 0.0000 -0.0000 -40.7427 50.3591 -6.3022 -0.0000 0.0000 0.0000 86.4031 -6.3987 16.8230 -24.9243 36.1265 -8.2452 0.0000 0.0000 6.5723 -27.7599 20.9500 -10.6582 7.1250 -0.0000 -0.0000 0.5371 -6.5845 0.4720
0.00 0.00 0.00 180.9150 3.0324 -172.7430 0.0000 0.0000 0.0000 -13.1211 -12.5833 -32.4225 3.9763 12.1288 36.1890 -0.0382 5.9107 -7.2492 0.0004 -0.1235 -0.3393 0.0000 0.0000 0.0000 25.5378 6.2399 -2.2248 -1.8732 -8.5969 24.5423 -0.2855 0.8138 -9.8387 -0.0629 1.6178 -4.4506 0.0342 4.7998 2.1788 -0.2509 6.4632 1.9588 -0.3645 3.2593 0.8261 5.0073 5.6634 -7.1693 -0.9812 6.8433 -4.6889 -0.9732 3.1886 -0.0568 -0.0000 -0.0000 0.0000 -71.7676 31.5307 -22.2578 14.2574 -23.1015 -2.9284 -0.0000 0.0000 -4.0402 -19.0121 21.7077 -7.2629 -7.1250 0.0000 -0.0000 -43.9437 46.6936 -2.2769 -0.0000 -0.0000 0.0000 84.1641 -3.9154 18.1435 -28.1059 39.2136 -10.1906 0.0000 0.0000 5.3205 -27.0314 21.2113 -10.4591 7.1250 -0.0000 -0.0000 1.0290 -6.4402 0.9073
0.00 0.00 0.00 181.0110 2.7985 -172.2540 0.0000 0.0000 0.0000 -12.9798 -13.6944 -30.4243 1.4013 7.4882 21.1700 -0.2188 8.3848 -4.6080 0.0647 -1.6408 -4.5141 0.0000 0.0000 0.0000 25.1256 4.5088 0.1869 -1.6165 -8.0169 22.7654 -0.2135 2.7010 -8.2127 -0.1067 2.1063 -5.7995 -0.8390 4.8446 1.9642 -0.1970 6.5658 2.7579 0.2309 3.3130 1.6649 3.9312 5.5089 -9.8645 -0.7824 6.4842 -4.6458 -0.6771 2.9775 0.3415 0.0000 -0.0000 0.0000 -67.2275 32.1840 -18.9940 12.4717 -20.5083 -2.2648 -0.0000 -0.0000 3.4556 -21.9439 19.1811 -7.5405 -7.1250 0.0000 -0.0000 -44.4577 44.2873 0.9949 0.0000 -0.0000 0.0000 81.6842 -0.2461 19.4116 -29.4008 40.3742 -11.0194 0.0000 0.0000 4.5002 -26.5855 23.2737 -11.1853 7.1250 -0.0000 -0.0000 1.5682 -4.3015 1.4467
0.00 0.00 0.00 181.8580 3.7564 -171.7680 0.0000 0.0000 0.0000 -12.5183 -12.1492 -26.8682 0.1006 2.0452 5.6306 -0.2147 9.6588 1.9407 0.2190 -3.0129 -8.3146 0.0000 0.0000 0.0000 25.1794 3.0603 3.3610 -1.2596 -7.1147 20.0555 -0.0935 4.4126 -5.8391 -0.1102 2.1406 -5.8944 -0.2263 5.1203 1.7557 -0.4933 6.9291 2.5494 -0.3942 3.5032 1.6723 3.7011 5.0056 -9.4590 -0.1840 5.8662 -4.7735 -0.4879 2.6794 0.1926 -0.0000 -0.0000 0.0000 -63.7981 34.0477 -14.4753 11.8062 -19.5133 -2.0371 -0.0000 -0.0000 7.7126 -22.4238 19.9281 -8.0062 -7.1250 0.0000 -0.0000 -45.2834 44.8058 0.2779 -0.0000 -0.0000 0.0000 80.8338 1.0975 20.2114 -30.0014 40.8946 -11.4105 0.0000 0.0000 5.5752 -28.1760 25.1023 -12.8027 7.1250 -0.0000 -0.0000 0.8546 -1.9936 0.8244
0.00 0.00 0.00 178.3320 8.1352 -171.6790 0.0000 0.0000 0.0000 -18.6781 -9.0722 -26.9729 1.1813 6.8980 19.4136 -0.2139 8.3033 -1.4511 0.0147 -0.7818 -2.1485 0.0000 0.0000 0.0000 20.7532 5.1433 12.2327 -1.9976 -8.8611 25.3617 -0.0363 -5.1115 4.6636 -0.0857 1.8885 -5.1977 -4.8405 4.2881 -0.7212 -3.3842 6.0176 1.1574 -0.6681 3.0438 1.4708 1.6505 2.0959 -8.8221 5.9128 2.0923 -6.3640 1.6098 0.7020 -0.5577 0.0000 -0.0000 0.0000 -74.7908 25.7245 -39.1253 9.7166 -16.2950 -1.3944 -0.0000 -0.0000 7.0527 -9.5330 22.0585 -3.6088 -7.1250 0.0000 -0.0000 -36.5385 48.3628 -3.4660 0.0000 -0.0000 0.0000 85.3844 -0.7527 21.6776 -29.2697 40.2591 -10.9346 0.0000 0.0000 6.6702 -26.8515 24.0776 -11.6699 7.1250 -0.0000 -0.0000 1.5121 -3.3835 1.4207
0.00 0.00 0.00 177.2160 9.3298 -172.6840 0.0000 0.0000 0.0000 -21.9387 -6.5968 -24.2219 1.7431 8.3091 23.6570 -0.0168 5.2744 -6.9707 0.0183 -0.8743 -2.4029 0.0000 0.0000 0.0000 18.1979 7.4325 5.1626 -5.0503 -13.4402 41.0394 -0.8376 -10.1188 16.7622 -0.1726 -2.6763 7.3787 -4.8340 3.6328 -0.9585 -3.9696 5.2483 1.4352 -1.2477 2.6778 1.9662 -1.0348 0.2374 -8.3596 8.5100 -0.1411 -6.7460 2.9039 -0.4060 -0.6946 -0.0000 -0.0000 0.0000 -83.0071 15.0961 -35.8436 11.5303 -19.0965 -1.9459 -0.0000 0.0000 -15.7538 -0.9434 27.8750 -0.4411 -7.1250 0.0000 -0.0000 -32.8903 54.6370 -8.4732 -0.0000 -0.0000 0.0000 88.1262 -2.1768 20.1194 -25.2248 36.4328 -8.4230 0.0000 0.0000 7.6073 -27.9614 22.8429 -11.6444 7.1250 -0.0000 -0.0000 0.6603 -4.4840 0.6067
0.00 0.00 0.00 174.8000 9.1488 -174.4200 0.0000 0.0000 0.0000 -26.6438 -3.5450 -17.5061 1.4510 7.6141 21.5480 0.1627 3.5769 -9.7984 0.0148 -0.7851 -2.1577 0.0000 0.0000 0.0000 13.4527 7.2074 -5.6272 -9.3858 -17.0497 57.4149 -0.1595 -12.4990 10.7572 -0.5018 -4.5412 12.6044 -7.3783 1.7565 -0.0047 -3.9914 2.6924 0.8829 0.0309 1.4258 0.7856 -1.7875 -1.2621 -7.2990 9.7658 -0.9044 -3.7198 3.4473 -0.1216 0.1528 -0.0000 0.0000 0.0000 -90.8190 3.9668 -22.7662 16.7461 -26.5219 -3.9733 -0.0000 0.0000 -42.9361 -1.1655 30.2261 -0.5868 -7.1250 0.0000 -0.0000 -34.9931 56.5493 -10.8252 -0.0000 0.0000 0.0000 88.0357 -2.7948 22.3128 -18.5622 28.8710 -4.8176 0.0000 0.0000 13.3457 -22.9442 21.6757 -8.8866 7.1250 -0.0000 -0.0000 3.6591 -6.6745 3.2157
0.00 0.00 0.00 173.4910 6.1493 -175.0730 0.0000 0.0000 0.0000 -29.3404 -1.4204 -11.6750 1.4791 7.6843 21.7594 0.3682 0.8042 -11.7818 0.0948 -1.9852 -5.4647 0.0000 0.0000 0.0000 10.0131 5.4565 -21.0566 -11.7659 -18.2899 65.2449 0.2171 -8.2743 -3.9511 -0.0332 -1.1760 3.2333 -9.3031 -0.7031 0.0500 -3.5235 -0.6277 0.3501 1.5604 -0.2151 0.4155 -3.0296 -1.9860 -6.3746 13.6495 -2.1949 0.0965 4.5405 -0.6196 1.2884 0.0000 -0.0000 0.0000 -91.5049 -13.7191 -2.3216 27.8258 -38.9554 -10.0140 -0.0000 0.0000 -62.6960 0.7934 31.2364 0.4115 -7.1250 0.0000 -0.0000 -34.0176 57.7936 -11.5282 0.0000 -0.0000 0.0000 88.5969 -6.3831 19.0388 -15.7312 25.1548 -3.5309 0.0000 0.0000 21.9746 -17.2704 22.7366 -6.8519 7.1250 -0.0000 -0.0000 7.3135 -6.4469 6.5006
0.00 0.00 0.00 172.0450 3.9798 -174.9960 0.0000 0.0000 0.0000 -30.8287 0.1838 -6.5835 1.5293 7.8078 22.1319 0.5380 -1.4555 -13.4297 0.4771 -4.4299 -12.2893 0.0000 0.0000 0.0000 7.5287 9.4197 -29.7592 -7.9061 -16.0497 52.2237 -0.3059 -6.2488 -14.5877 -0.0159 -0.8148 2.2393 -11.7675 -2.1558 0.5508 -3.3530 -2.5859 0.2924 3.0779 -1.1693 0.3880 -4.0010 -2.4355 -6.5164 16.5413 -2.7837 1.1490 5.5829 -0.7346 1.7468 0.0000 0.0000 0.0000 -83.5769 -37.6690 -0.1599 31.8003 -42.3874 -12.6060 -0.0000 0.0000 -62.6013 0.1945 31.1786 0.1007 -7.1250 0.0000 -0.0000 -34.5388 57.6175 -11.5830 0.0000 0.0000 0.0000 90.5955 -9.5421 11.0053 -13.8086 22.4604 -2.7546 0.0000 0.0000 19.7940 -25.6226 18.2461 -8.5399 7.1250 -0.0000 -0.0000 1.6057 -9.9022 1.3062
